REM DIRINDEX 1\2,1\3\7,1\3\8,1\4\9,1\4\10,1\4\11,1\5\12,1\5\13,1\5\14,1\6\15,1\6\16,1\6\17
REM DIRNAME "folder01","folder02","folder03","folder04","folder05","folder06","folder07","folder08","folder09","folder10","folder11","folder12","folder13","folder14","folder15","folder16","folder17"
TITLE ""
FILE "2Q_t_0435-0452.mp3" MP3
  TRACK 01 AUDIO
    TITLE "0:"
    INDEX 01 00:00:00
  TRACK 02 AUDIO
    TITLE "7:cjc174_2621"
    INDEX 01 00:00:08
  TRACK 03 AUDIO
    TITLE "0:"
    INDEX 01 00:01:22
  TRACK 04 AUDIO
    TITLE "8:cjc174_2622"
    INDEX 01 00:01:65
  TRACK 05 AUDIO
    TITLE "0:"
    INDEX 01 00:03:26
  TRACK 06 AUDIO
    TITLE "7:cjc174_2623"
    INDEX 01 00:03:69
  TRACK 07 AUDIO
    TITLE "0:"
    INDEX 01 00:04:71
  TRACK 08 AUDIO
    TITLE "8:cjc174_2624"
    INDEX 01 00:05:45
  TRACK 09 AUDIO
    TITLE "0:"
    INDEX 01 00:07:42
  TRACK 10 AUDIO
    TITLE "7:cjc174_2625"
    INDEX 01 00:08:10
  TRACK 11 AUDIO
    TITLE "0:"
    INDEX 01 00:09:31
  TRACK 12 AUDIO
    TITLE "8:cjc174_2626"
    INDEX 01 00:10:01
  TRACK 13 AUDIO
    TITLE "0:"
    INDEX 01 00:12:70
  TRACK 14 AUDIO
    TITLE "7:cjc174_2627"
    INDEX 01 00:13:42
  TRACK 15 AUDIO
    TITLE "0:"
    INDEX 01 00:14:71
  TRACK 16 AUDIO
    TITLE "8:cjc174_2628"
    INDEX 01 00:15:51
  TRACK 17 AUDIO
    TITLE "0:"
    INDEX 01 00:18:40
  TRACK 18 AUDIO
    TITLE "7:cjc174_2629"
    INDEX 01 00:19:08
  TRACK 19 AUDIO
    TITLE "0:"
    INDEX 01 00:20:05
  TRACK 20 AUDIO
    TITLE "8:cjc174_2630"
    INDEX 01 00:20:56
  TRACK 21 AUDIO
    TITLE "0:"
    INDEX 01 00:22:69
  TRACK 22 AUDIO
    TITLE "7:cjc174_2631"
    INDEX 01 00:23:39
  TRACK 23 AUDIO
    TITLE "0:"
    INDEX 01 00:24:54
  TRACK 24 AUDIO
    TITLE "8:cjc174_2632"
    INDEX 01 00:25:26
  TRACK 25 AUDIO
    TITLE "0:"
    INDEX 01 00:27:42
  TRACK 26 AUDIO
    TITLE "7:cjc174_2633"
    INDEX 01 00:28:13
  TRACK 27 AUDIO
    TITLE "0:"
    INDEX 01 00:28:73
  TRACK 28 AUDIO
    TITLE "8:cjc174_2634"
    INDEX 01 00:29:57
  TRACK 29 AUDIO
    TITLE "0:"
    INDEX 01 00:32:26
  TRACK 30 AUDIO
    TITLE "7:cjc174_2635"
    INDEX 01 00:32:71
  TRACK 31 AUDIO
    TITLE "0:"
    INDEX 01 00:34:23
  TRACK 32 AUDIO
    TITLE "8:cjc174_2636"
    INDEX 01 00:34:72
  TRACK 33 AUDIO
    TITLE "0:"
    INDEX 01 00:41:46
  TRACK 34 AUDIO
    TITLE "7:cjc174_2637"
    INDEX 01 00:42:19
  TRACK 35 AUDIO
    TITLE "0:"
    INDEX 01 00:43:40
  TRACK 36 AUDIO
    TITLE "8:cjc174_2638"
    INDEX 01 00:44:12
  TRACK 37 AUDIO
    TITLE "0:"
    INDEX 01 00:46:67
  TRACK 38 AUDIO
    TITLE "7:cjc174_2639"
    INDEX 01 00:47:37
  TRACK 39 AUDIO
    TITLE "0:"
    INDEX 01 00:48:43
  TRACK 40 AUDIO
    TITLE "8:cjc174_2640"
    INDEX 01 00:49:15
  TRACK 41 AUDIO
    TITLE "0:"
    INDEX 01 00:50:12
  TRACK 42 AUDIO
    TITLE "7:cjc174_2641"
    INDEX 01 00:50:57
  TRACK 43 AUDIO
    TITLE "0:"
    INDEX 01 00:52:03
  TRACK 44 AUDIO
    TITLE "8:cjc174_2642"
    INDEX 01 00:52:50
  TRACK 45 AUDIO
    TITLE "0:"
    INDEX 01 00:53:57
  TRACK 46 AUDIO
    TITLE "7:cjc174_2643"
    INDEX 01 00:54:26
  TRACK 47 AUDIO
    TITLE "0:"
    INDEX 01 00:55:49
  TRACK 48 AUDIO
    TITLE "8:cjc174_2644"
    INDEX 01 00:56:25
  TRACK 49 AUDIO
    TITLE "0:"
    INDEX 01 00:57:38
  TRACK 50 AUDIO
    TITLE "7:cjc174_2645"
    INDEX 01 00:58:08
  TRACK 51 AUDIO
    TITLE "0:"
    INDEX 01 00:59:11
  TRACK 52 AUDIO
    TITLE "8:cjc174_2646"
    INDEX 01 00:59:58
  TRACK 53 AUDIO
    TITLE "0:"
    INDEX 01 01:01:06
  TRACK 54 AUDIO
    TITLE "7:cjc174_2647"
    INDEX 01 01:01:49
  TRACK 55 AUDIO
    TITLE "0:"
    INDEX 01 01:02:49
  TRACK 56 AUDIO
    TITLE "8:cjc174_2648"
    INDEX 01 01:03:23
  TRACK 57 AUDIO
    TITLE "0:"
    INDEX 01 01:05:27
  TRACK 58 AUDIO
    TITLE "7:cjc174_2649"
    INDEX 01 01:05:74
  TRACK 59 AUDIO
    TITLE "0:"
    INDEX 01 01:07:07
  TRACK 60 AUDIO
    TITLE "8:cjc174_2650"
    INDEX 01 01:07:56
  TRACK 61 AUDIO
    TITLE "0:"
    INDEX 01 01:09:62
  TRACK 62 AUDIO
    TITLE "7:cjc174_2651"
    INDEX 01 01:10:32
  TRACK 63 AUDIO
    TITLE "0:"
    INDEX 01 01:11:52
  TRACK 64 AUDIO
    TITLE "8:cjc174_2652"
    INDEX 01 01:12:22
  TRACK 65 AUDIO
    TITLE "0:"
    INDEX 01 01:14:44
  TRACK 66 AUDIO
    TITLE "7:cjc174_2653"
    INDEX 01 01:15:12
  TRACK 67 AUDIO
    TITLE "0:"
    INDEX 01 01:16:19
  TRACK 68 AUDIO
    TITLE "8:cjc174_2654"
    INDEX 01 01:16:66
  TRACK 69 AUDIO
    TITLE "0:"
    INDEX 01 01:17:52
  TRACK 70 AUDIO
    TITLE "7:cjc174_2655"
    INDEX 01 01:18:22
  TRACK 71 AUDIO
    TITLE "0:"
    INDEX 01 01:20:01
  TRACK 72 AUDIO
    TITLE "8:cjc174_2656"
    INDEX 01 01:20:54
  TRACK 73 AUDIO
    TITLE "0:"
    INDEX 01 01:22:22
